<svg width="7" height="12" viewBox="0 0 7 12" fill="none" xmlns="http://www.w3.org/2000/svg">
<path d="M1.3871 11.7625L6.82258 6.44327C6.8871 6.37995 6.93269 6.31135 6.95935 6.23747C6.98645 6.16359 7 6.08443 7 6C7 5.91557 6.98645 5.83641 6.95935 5.76253C6.93269 5.68865 6.8871 5.62005 6.82258 5.55673L1.3871 0.221636C1.23656 0.0738786 1.04839 0 0.82258 0C0.596774 0 0.403226 0.0791557 0.241935 0.237467C0.0806451 0.395778 0 0.580475 0 0.791557C0 1.00264 0.0806451 1.18734 0.241935 1.34565L4.98387 6L0.241935 10.6544C0.0913978 10.8021 0.0161285 10.9841 0.0161285 11.2002C0.0161285 11.4168 0.0967741 11.6042 0.258064 11.7625C0.419354 11.9208 0.607527 12 0.82258 12C1.03763 12 1.22581 11.9208 1.3871 11.7625Z" fill="white"/>
</svg>
