<svg width="26" height="26" viewBox="0 0 26 26" fill="none" xmlns="http://www.w3.org/2000/svg">
<path d="M5.94752 20.0385L5.94755 20.0385C7.88 21.9813 10.2259 22.95 13 22.95C15.7539 22.95 18.0959 21.9816 20.0388 20.038L20.0388 20.038C21.9817 18.0951 22.95 15.7539 22.95 13C22.95 10.2259 21.9813 7.88012 20.0393 5.94695C18.0965 4.01448 15.7543 3.05003 13 3.05003C10.2255 3.05003 7.8795 4.01478 5.94712 5.94645C5.94709 5.94647 5.94707 5.94649 5.94705 5.94651M5.94752 20.0385L5.77031 20.2148C3.79031 18.2249 2.80072 15.82 2.80072 13C2.80072 10.1602 3.79031 7.75041 5.77031 5.7697L5.94705 5.94651M5.94752 20.0385C4.0144 18.0957 3.05072 15.7543 3.05072 13C3.05072 10.2255 4.0147 7.87958 5.94705 5.94651M5.94752 20.0385L5.94705 5.94651M17.0472 13.1768L17.2239 13L17.0472 12.8232L11.8568 7.63285L11.6779 7.45395L11.5011 7.63497L10.2411 8.92541L10.0685 9.10217L10.2432 9.27685L13.9664 13L10.2432 16.7232L10.0685 16.8978L10.2411 17.0746L11.5011 18.365L11.6779 18.546L11.8568 18.3671L17.0472 13.1768ZM24.2851 17.7487L24.2851 17.7486C24.9286 16.2566 25.25 14.6727 25.25 13C25.25 11.3072 24.9288 9.71348 24.2851 8.22107L24.285 8.22097C23.6425 6.73307 22.765 5.43539 21.6515 4.3327C20.5379 3.22922 19.2368 2.35726 17.7494 1.7157C16.2573 1.07142 14.6734 0.75 13 0.75C11.3079 0.75 9.71406 1.07127 8.22093 1.71572C6.73343 2.35734 5.43691 3.2295 4.33365 4.33345C3.2303 5.43608 2.35796 6.73352 1.71565 8.22097L1.71561 8.22107C1.07191 9.71342 0.75 11.3072 0.75 13C0.75 14.6728 1.07208 16.2566 1.71561 17.7486L1.71564 17.7487C2.35789 19.2367 3.23001 20.538 4.33279 21.6509C5.43607 22.7642 6.73284 23.6424 8.22093 24.2843C9.71406 24.9287 11.3079 25.25 13 25.25C14.6734 25.25 16.2574 24.9286 17.7495 24.2843C19.2373 23.6425 20.5387 22.7646 21.6522 21.6517L21.6523 21.6517C22.7652 20.5387 23.6426 19.2372 24.2851 17.7487Z" fill="#00F090" stroke="#00F090" stroke-width="0.5"/>
</svg>
