<svg width="22" height="22" viewBox="0 0 22 22" fill="none" xmlns="http://www.w3.org/2000/svg">
<path fill-rule="evenodd" clip-rule="evenodd" d="M0.428364 21.5709H4.88V7.19055H0.428364V21.5709ZM2.63273 5.30691C1.17891 5.30691 0 4.11927 0 2.65382C0 1.18836 1.17891 0 2.63273 0C4.08655 0 5.26473 1.18836 5.26473 2.65382C5.26473 4.11927 4.08655 5.30691 2.63273 5.30691ZM21.56 21.5709H17.1302V14.0218C17.1302 11.952 16.344 10.7956 14.7069 10.7956C12.9251 10.7956 11.9949 11.9993 11.9949 14.0218V21.5709H7.72582V7.19055H11.9949V9.12727C11.9949 9.12727 13.2785 6.75127 16.328 6.75127C19.3767 6.75127 21.56 8.61382 21.56 12.4655V21.5709Z" fill="white"/>
</svg>
