<svg width="6" height="10" viewBox="0 0 6 10" fill="none" xmlns="http://www.w3.org/2000/svg">
<path d="M1.18894 0.197889L5.84793 4.63061C5.90323 4.68338 5.9423 4.74055 5.96516 4.80211C5.98839 4.86368 6 4.92964 6 5C6 5.07036 5.98839 5.13632 5.96516 5.19789C5.9423 5.25945 5.90323 5.31662 5.84793 5.36939L1.18894 9.8153C1.05991 9.93843 0.898617 10 0.705069 10C0.51152 10 0.345622 9.93404 0.207373 9.80211C0.0691243 9.67018 -4.34548e-07 9.51627 -4.1917e-07 9.34037C-4.03793e-07 9.16447 0.0691243 9.01055 0.207373 8.87863L4.27189 5L0.207374 1.12137C0.0783418 0.99824 0.0138253 0.846613 0.0138253 0.66649C0.0138253 0.486016 0.0829495 0.329814 0.221198 0.197889C0.359447 0.0659623 0.520738 -4.79012e-07 0.705069 -4.62898e-07C0.889401 -4.46783e-07 1.05069 0.0659624 1.18894 0.197889Z" fill="#FF6145"/>
</svg>
