<svg width="52" height="52" viewBox="0 0 52 52" fill="none" xmlns="http://www.w3.org/2000/svg">
<path fill-rule="evenodd" clip-rule="evenodd" d="M30.8912 26.3319V16.3826H20.6796V26.3319H14.5664L25.7854 37.5474L37.0043 26.3319H30.8912Z" fill="#FFDF00"/>
<path fill-rule="evenodd" clip-rule="evenodd" d="M37.361 0.0862962C38.4894 -0.244018 39.6719 0.402933 40.0022 1.5313L41.8381 7.80284C42.0059 8.37588 41.9253 8.99302 41.6159 9.50373C41.3066 10.0145 40.7971 10.3718 40.2115 10.4886L33.6513 11.7974C32.4983 12.0275 31.3772 11.2792 31.1471 10.1262C30.9171 8.97325 31.6653 7.85208 32.8183 7.62205L33.9171 7.40283C31.507 6.38057 28.8575 5.81482 26.0734 5.81482C14.9482 5.81482 5.92954 14.8346 5.92954 25.9621C5.92954 29.4827 6.83346 32.7858 8.41879 35.661C8.98649 36.6905 8.61206 37.9854 7.58248 38.5531C6.5529 39.1208 5.25805 38.7464 4.69035 37.7168C2.76736 34.2293 1.67188 30.2211 1.67188 25.9621C1.67188 12.4837 12.5961 1.55716 26.0734 1.55716C29.6941 1.55716 33.1305 2.34891 36.22 3.76581L35.916 2.72748C35.5857 1.59911 36.2327 0.416611 37.361 0.0862962ZM44.1741 13.0128C45.1928 12.4257 46.4945 12.7756 47.0816 13.7942C49.1208 17.3323 50.3012 21.4307 50.3302 25.8016V25.8018C50.4178 39.2793 39.5654 50.2767 26.0883 50.3653H26.0881C22.4678 50.3888 19.0261 49.6193 15.9272 48.2225L16.238 49.2595C16.5755 50.3857 15.9361 51.5723 14.8099 51.9098C13.6837 52.2474 12.4971 51.608 12.1596 50.4817L10.2836 44.2221C10.1122 43.6502 10.1889 43.0326 10.4949 42.5199C10.8009 42.0073 11.3081 41.6467 11.8928 41.526L18.4445 40.1747C19.596 39.9371 20.722 40.6781 20.9595 41.8296C21.197 42.981 20.4561 44.107 19.3046 44.3445L18.2072 44.5709C20.6239 45.5773 23.2769 46.1258 26.0603 46.1077C37.1856 46.0346 46.1448 36.9563 46.0726 25.8297C46.0487 22.2167 45.0748 18.8386 43.3928 15.9203C42.8057 14.9017 43.1555 13.6 44.1741 13.0128Z" fill="#FFDF00"/>
</svg>
