<svg width="52" height="52" viewBox="0 0 52 52" fill="none" xmlns="http://www.w3.org/2000/svg">
<path fill-rule="evenodd" clip-rule="evenodd" d="M49.337 17.7849L35.1364 15.7148L28.7898 2.8463C27.6521 0.551759 24.357 0.52268 23.2102 2.8463L16.8637 15.7148L2.66296 17.7849C0.116705 18.1538 -0.903797 21.2935 0.942738 23.0918L11.2168 33.1033L8.78597 47.2449C8.34887 49.8012 11.0414 51.7168 13.2969 50.5209L26 43.8436L38.704 50.5209C40.9586 51.7068 43.6511 49.8012 43.214 47.2449L40.7841 33.1033L51.0573 23.0918C52.9038 21.2935 51.8833 18.1538 49.337 17.7849ZM35.7779 31.4703L38.0815 44.9222L26 38.5757L13.9185 44.9222L16.2221 31.4703L6.44418 21.945L19.9542 19.9813L26 7.73434L32.0458 19.9813L45.5558 21.945L35.7779 31.4703Z" fill="#00CBC7"/>
</svg>
