<svg width="16" height="16" viewBox="0 0 16 16" fill="none" xmlns="http://www.w3.org/2000/svg">
<path d="M8 12.936L4.24468 15.7854C4.0586 15.9367 3.85561 16.008 3.6357 15.9993C3.4158 15.9912 3.22127 15.9283 3.05211 15.8107C2.88295 15.693 2.75202 15.5333 2.65932 15.3316C2.56594 15.1298 2.56155 14.9113 2.64613 14.6759L4.09243 10.0109L0.413231 7.41361C0.21024 7.27913 0.0833711 7.10261 0.0326234 6.88407C-0.0181242 6.66553 -0.00966616 6.4638 0.0579973 6.27888C0.125661 6.09396 0.244072 5.92988 0.413231 5.78665C0.582389 5.6441 0.78538 5.57282 1.0222 5.57282H5.56411L7.0358 0.731275C7.12037 0.495922 7.25164 0.315037 7.4296 0.188619C7.60687 0.0628731 7.79701 0 8 0C8.20299 0 8.39313 0.0628731 8.5704 0.188619C8.74836 0.315037 8.87963 0.495922 8.9642 0.731275L10.4359 5.57282H14.9778C15.2146 5.57282 15.4176 5.6441 15.5868 5.78665C15.7559 5.92988 15.8743 6.09396 15.942 6.27888C16.0097 6.4638 16.0181 6.66553 15.9674 6.88407C15.9166 7.10261 15.7898 7.27913 15.5868 7.41361L11.9076 10.0109L13.3539 14.6759C13.4385 14.9113 13.4344 15.1298 13.3417 15.3316C13.2483 15.5333 13.1171 15.693 12.9479 15.8107C12.7787 15.9283 12.5842 15.9912 12.3643 15.9993C12.1444 16.008 11.9414 15.9367 11.7553 15.7854L8 12.936Z" fill="#FF6145"/>
</svg>
