<svg width="52" height="52" viewBox="0 0 52 52" fill="none" xmlns="http://www.w3.org/2000/svg">
<path fill-rule="evenodd" clip-rule="evenodd" d="M41.7361 29.1522C41.5998 28.8419 41.2614 28.6723 40.9307 28.7584L23.6906 33.117C23.6837 33.1187 23.5977 33.1451 23.59 33.1477C23.5269 33.1656 23.4639 33.1861 23.3991 33.2142C21.501 34.0452 20.6095 36.2142 21.4124 38.0484C22.0013 39.395 23.3428 40.1936 24.767 40.1936C25.2818 40.1936 25.8077 40.0888 26.3131 39.868C26.3761 39.8399 26.4341 39.8067 26.492 39.7717C26.498 39.7683 26.5747 39.724 26.5815 39.7197L41.4796 30.0113C41.7634 29.8263 41.8716 29.4632 41.7361 29.1522Z" fill="#AB73F0"/>
<path fill-rule="evenodd" clip-rule="evenodd" d="M48.9496 40.1893C48.8073 40.1893 48.6633 40.1779 48.5184 40.1549C47.0039 39.9188 45.9692 38.4997 46.2061 36.9869C46.3698 35.9369 46.4524 34.8673 46.4524 33.807C46.4524 22.5295 37.2775 13.3537 26 13.3537C14.7225 13.3537 5.54756 22.5295 5.54756 33.807C5.54756 34.8673 5.63024 35.9369 5.79388 36.9869C6.03081 38.4997 4.99528 39.9188 3.48161 40.1549C1.97305 40.3944 0.549728 39.3571 0.313643 37.8426C0.104832 36.5105 0 35.1536 0 33.807C0 19.4698 11.6636 7.80615 26 7.80615C40.3364 7.80615 52 19.4698 52 33.807C52 35.1536 51.8943 36.5105 51.6864 37.8426C51.4733 39.2114 50.292 40.1893 48.9496 40.1893Z" fill="#AB73F0"/>
</svg>
