<svg width="23" height="18" viewBox="0 0 23 18" fill="none" xmlns="http://www.w3.org/2000/svg">
<path fill-rule="evenodd" clip-rule="evenodd" d="M19.913 4.36364C20.193 10.5847 15.5523 17.5222 7.34066 17.5222C4.84248 17.5222 2.51666 16.7898 0.55957 15.5338C2.90648 15.8109 5.2483 15.16 7.10866 13.7025C5.17266 13.6669 3.53921 12.3884 2.9763 10.6305C3.66939 10.7636 4.35157 10.7244 4.97339 10.5549C2.84684 10.128 1.37703 8.21091 1.42575 6.16218C2.02284 6.49309 2.7043 6.69236 3.42939 6.71491C1.45921 5.39855 0.901388 2.79782 2.06066 0.809455C4.24248 3.48582 7.50139 5.24655 11.1778 5.43127C10.5334 2.664 12.6316 0 15.4876 0C16.7588 0 17.9079 0.536727 18.7152 1.39636C19.7225 1.19782 20.6687 0.829818 21.5247 0.322909C21.1938 1.35564 20.4927 2.22327 19.5799 2.77091C20.4738 2.664 21.3268 2.42545 22.1196 2.07345C21.5268 2.96145 20.7778 3.74036 19.913 4.36364Z" fill="white"/>
</svg>
