<svg width="125" height="61" viewBox="0 0 125 61" fill="none" xmlns="http://www.w3.org/2000/svg">
<path d="M16.7343 40.8296V60.8575H14.6462V51.6156H2.11723V60.8575H0V40.8296H2.11723V49.7569H14.6462V40.8296H16.7343Z" fill="white"/>
<path d="M22.7979 42.0879C22.5125 41.8023 22.3684 41.4586 22.3684 41.0581C22.3684 40.6773 22.5111 40.3429 22.7979 40.0573C23.0834 39.7718 23.4363 39.6277 23.8566 39.6277C24.2755 39.6277 24.6284 39.7665 24.9152 40.0428C25.2006 40.3191 25.3447 40.6482 25.3447 41.0303C25.3447 41.4507 25.202 41.8023 24.9152 42.0892C24.6297 42.3747 24.2755 42.5188 23.8566 42.5188C23.4376 42.5175 23.0847 42.3734 22.7979 42.0879ZM22.827 45.8079H24.8583V60.8572H22.827V45.8079Z" fill="white"/>
<path d="M34.5974 46.4659C35.541 45.9503 36.7093 45.6938 38.101 45.6938V47.6676L37.6146 47.6385C36.0313 47.6385 34.793 48.125 33.8956 49.0979C32.9995 50.0709 32.5515 51.4352 32.5515 53.1894V60.8569H30.5215V45.8075H32.4669V48.7542C32.9427 47.7429 33.6537 46.9801 34.5974 46.4659Z" fill="white"/>
<path d="M54.7206 53.9619H42.1348C42.2498 55.5258 42.8498 56.7896 43.9362 57.7533C45.0239 58.717 46.3957 59.1982 48.0557 59.1982C48.9901 59.1982 49.8478 59.0317 50.6302 58.6972C51.4126 58.3641 52.0893 57.8723 52.6615 57.2232L53.8061 58.5399C53.1386 59.341 52.3047 59.9517 51.3029 60.3708C50.3011 60.7912 49.2002 61.0001 47.9989 61.0001C46.4539 61.0001 45.086 60.6709 43.8939 60.0126C42.7018 59.3542 41.7727 58.4434 41.1053 57.28C40.4379 56.1167 40.1035 54.8 40.1035 53.3313C40.1035 51.8626 40.4233 50.5459 41.0617 49.3826C41.7 48.2193 42.5776 47.3137 43.693 46.6646C44.8085 46.0169 46.0627 45.6917 47.4544 45.6917C48.846 45.6917 50.095 46.0169 51.2011 46.6646C52.3073 47.3137 53.1743 48.214 53.8047 49.3681C54.4338 50.5221 54.7484 51.8428 54.7484 53.3313L54.7206 53.9619ZM43.808 48.826C42.826 49.7514 42.2683 50.9571 42.1348 52.4456H52.8043C52.6708 50.9584 52.1131 49.7514 51.1311 48.826C50.1491 47.9007 48.924 47.438 47.4557 47.438C46.0059 47.438 44.79 47.9007 43.808 48.826Z" fill="white"/>
<path d="M58.4393 40.8296H67.536C69.7101 40.8296 71.6304 41.2447 73.2996 42.0736C74.9675 42.9038 76.264 44.0724 77.1891 45.5781C78.1143 47.0852 78.5768 48.8394 78.5768 50.8422C78.5768 52.845 78.1143 54.6006 77.1891 56.1063C76.264 57.6133 74.9675 58.782 73.2996 59.6108C71.6304 60.441 69.7101 60.8548 67.536 60.8548H58.4393V40.8296ZM67.3061 57.0515C69.3083 57.0515 70.9048 56.4936 72.0969 55.3779C73.2877 54.2621 73.8851 52.7511 73.8851 50.8435C73.8851 48.9359 73.289 47.4249 72.0969 46.3078C70.9048 45.1921 69.3083 44.6342 67.3061 44.6342H63.0729V57.0515H67.3061Z" fill="white"/>
<path d="M100.43 40.8296V60.8575H96.6262L86.644 48.698V60.8575H82.0673V40.8296H85.8999L95.8544 52.9891V40.8296H100.43Z" fill="white"/>
<path d="M118.364 56.5662H109.068L107.294 60.8587H102.546L111.471 40.8308H116.048L125 60.8587H120.137L118.364 56.5662ZM116.905 53.0458L113.729 45.3784L110.555 53.0458H116.905Z" fill="white"/>
<path d="M91.4771 22.9491C93.6366 22.9491 95.3877 21.1975 95.3877 19.0374V7.60898C95.3877 5.44888 93.6366 3.69727 91.4771 3.69727C89.3176 3.69727 87.5664 5.44888 87.5664 7.60898V19.0374C87.5664 21.1988 89.3176 22.9491 91.4771 22.9491Z" fill="white"/>
<path d="M76.9887 30.3458C79.1482 30.3458 80.8993 28.5942 80.8993 26.4341V16.5907C80.8993 14.4306 79.1482 12.679 76.9887 12.679C74.8291 12.679 73.078 14.4306 73.078 16.5907V26.4341C73.078 28.5942 74.8291 30.3458 76.9887 30.3458Z" fill="white"/>
<path d="M48.0132 19.2519C50.1727 19.2519 51.9239 17.5002 51.9239 15.3401V3.91171C51.9239 1.75161 50.1727 0 48.0132 0C45.8537 0 44.1025 1.75161 44.1025 3.91171V15.3401C44.1025 17.5016 45.8537 19.2519 48.0132 19.2519Z" fill="white"/>
<path d="M33.5259 26.6481C35.6854 26.6481 37.4366 24.8965 37.4366 22.7364V12.8917C37.4366 10.7316 35.6854 8.97998 33.5259 8.97998C31.3664 8.97998 29.6152 10.7316 29.6152 12.8917V22.7351C29.6152 24.8965 31.3664 26.6481 33.5259 26.6481Z" fill="white"/>
<path d="M62.5015 22.3086C64.661 22.3086 66.4122 20.557 66.4122 18.3969V10.3805C66.4122 8.22036 64.661 6.46875 62.5015 6.46875C60.342 6.46875 58.5908 8.22036 58.5908 10.3805V18.3969C58.5908 20.5583 60.342 22.3086 62.5015 22.3086Z" fill="white"/>
</svg>
