<svg width="52" height="52" viewBox="0 0 52 52" fill="none" xmlns="http://www.w3.org/2000/svg">
<path fill-rule="evenodd" clip-rule="evenodd" d="M7.60644 7.60644C-2.53548 17.7484 -2.53548 34.2507 7.60644 44.3936C17.7484 54.5355 34.2507 54.5355 44.3926 44.3936C54.5355 34.2507 54.5345 17.7484 44.3926 7.60644C34.2507 -2.53548 17.7484 -2.53548 7.60644 7.60644ZM11.6957 40.3033C4.56016 33.1677 3.90377 21.9945 9.67982 14.0876L37.9124 42.3192C30.0055 48.0962 18.8323 47.4398 11.6957 40.3033ZM42.0504 38.2786L13.7214 9.94958C21.6458 3.8804 33.0577 4.45012 40.3033 11.6957C47.5499 18.9423 48.1196 30.3542 42.0504 38.2786Z" fill="#FF6145"/>
</svg>
