<svg width="22" height="16" viewBox="0 0 22 16" fill="none" xmlns="http://www.w3.org/2000/svg">
<path fill-rule="evenodd" clip-rule="evenodd" d="M21.3716 2.93891C21.1876 1.36727 20.8109 0.907637 20.5447 0.698909C20.1178 0.365819 19.3432 0.250182 18.3105 0.179636C16.6487 0.0661816 13.8371 0 10.792 0C7.74616 0 4.93597 0.0661816 3.27415 0.179636C2.24215 0.250182 1.4676 0.365819 1.03997 0.698909C0.773787 0.907637 0.397786 1.36727 0.212332 2.93891C-0.0538501 5.20509 -0.0538501 10.3702 0.212332 12.6371C0.397786 14.208 0.773787 14.6669 1.03997 14.8756C1.4676 15.2109 2.24215 15.3258 3.27415 15.3971C4.93597 15.5084 7.74616 15.576 10.792 15.576C13.8385 15.576 16.6487 15.5084 18.3105 15.3971C19.3432 15.3258 20.1178 15.2109 20.5447 14.8756C20.8109 14.6669 21.1876 14.208 21.3716 12.6371C21.6392 10.3702 21.6392 5.20509 21.3716 2.93891ZM8.19125 11.1782V4.39709L14.6945 7.78764L8.19125 11.1782Z" fill="white"/>
</svg>
